<?xml version="1.0" encoding="UTF-8" standalone="no"?>
<!DOCTYPE svg PUBLIC "-//W3C//DTD SVG 1.1//EN" "http://www.w3.org/Graphics/SVG/1.1/DTD/svg11.dtd">
<svg width="100%" height="100%" viewBox="0 0 64 64" version="1.1" xmlns="http://www.w3.org/2000/svg" xmlns:xlink="http://www.w3.org/1999/xlink" xml:space="preserve" style="fill-rule:evenodd;clip-rule:evenodd;stroke-linejoin:round;stroke-miterlimit:1.41421;">
    <g>
        <path d="M61.735,3.26L2.266,3.26C1.017,3.26 0,4.251 0,5.47L0,48.127C0,49.391 1.017,50.418 2.266,50.418L23.097,50.418L22.092,57.449L17.438,57.449L17.438,60.739L46.563,60.739L46.563,57.449L41.91,57.449L40.904,50.418L61.736,50.418C62.985,50.418 64.001,49.391 64.001,48.127L64.001,43.967L64.001,41.967L64.001,5.47C64,4.251 62.984,3.26 61.735,3.26ZM24.112,57.45L25.117,50.419L38.883,50.419L39.889,57.45L24.112,57.45ZM62,48.127C62,48.285 61.879,48.418 61.735,48.418L40.617,48.418L23.383,48.418L2.266,48.418C2.122,48.418 2,48.286 2,48.127L2,43.967L62,43.967L62,48.127ZM62,41.967L2,41.967L2,5.47C2,5.37 2.109,5.26 2.266,5.26L61.736,5.26C61.892,5.26 62,5.371 62,5.47L62,41.967Z" style="fill:white;fill-rule:nonzero;"/>
        <g transform="matrix(0.13128,0,0,0.13128,-1.60745,-1.18361)">
            <path d="M256.982,77.572C249.63,78.024 243.188,78.166 236.806,78.862C221.362,80.546 210.137,88.058 205.348,103.336C203.257,110.008 201.908,116.931 200.562,123.806C200.148,125.923 199.481,126.545 197.424,126.8C187.77,127.998 178.075,129.041 168.525,130.835C160.617,132.321 152.936,134.963 146.722,140.461C139.341,146.991 140.419,156.069 148.244,161.622C157.395,168.116 169.378,165.272 179.812,165.175C185.555,165.121 191.299,165.085 197.043,165.051C213.955,164.951 230.868,164.886 247.78,164.836C265.746,164.783 283.712,164.749 301.678,164.761C311.883,164.768 322.404,164.774 332.727,164.998C342.187,165.203 352.971,167.524 361.864,163.352C368.393,160.289 372,153.518 369.42,146.535C366.302,138.096 355.787,134.455 347.965,132.011C337.075,128.609 325.758,127.491 314.42,126.766C312.433,126.639 311.872,125.907 311.48,123.946C310.107,117.074 308.798,110.141 306.703,103.471C302.306,89.475 292.5,81.382 277.989,79.398C270.744,78.41 263.403,78.111 256.982,77.572Z" style="fill:white;fill-rule:nonzero;"/>
        </g>
        <g transform="matrix(0.13128,0,0,0.13128,-1.60745,-1.18361)">
            <path d="M312.162,240.533C296.235,237.667 280.316,234.752 264.368,232.01C260.668,231.374 256.775,230.667 253.128,231.159C244.105,232.377 235.174,234.268 226.206,235.893C216.971,237.567 207.738,239.246 197.575,241.092C201.034,251.235 217.729,280.495 226.64,287.717C236.781,295.935 250.026,299.671 262.956,297.749C289.422,293.814 308.12,265.198 314.392,241.153C313.575,240.922 312.881,240.662 312.162,240.533Z" style="fill:white;fill-rule:nonzero;"/>
        </g>
        <g transform="matrix(0.13128,0,0,0.13128,-1.60745,-1.18361)">
            <path d="M326.646,182.094C326.329,179.811 322.207,179.113 322.144,179.113C316.944,178.416 312.378,177.972 308.257,177.655C301.979,177.275 296.399,177.084 291.199,177.084C283.843,177.084 277.121,177.464 270.717,178.289C266.025,178.86 261.015,179.367 256.006,179.494C250.933,179.367 245.923,178.86 241.294,178.289C234.826,177.465 228.168,177.084 220.749,177.084C215.549,177.084 210.032,177.274 203.754,177.655C199.569,177.972 195.004,178.416 189.804,179.113C189.804,179.113 185.682,179.81 185.302,182.094C185.048,183.869 184.795,186.976 186.316,188.879C188.282,191.352 189.17,193.635 189.297,196.552C189.551,202.64 191.263,208.537 194.433,214.054C197.477,219.444 202.169,222.614 208.32,223.502C212.442,224.073 216.5,224.39 220.305,224.39C224.173,224.39 227.914,224.136 231.529,223.502C240.09,222.171 246.051,217.288 248.777,209.488C250.172,205.43 251.06,201.118 251.948,196.996C252.201,195.855 252.455,194.713 252.709,193.572C253.279,190.908 254.167,190.401 256.007,190.338C257.782,190.401 258.67,190.908 259.304,193.572C259.558,194.713 259.748,195.855 260.002,196.996C260.889,201.118 261.841,205.43 263.236,209.488C265.9,217.288 271.86,222.17 280.421,223.502C284.036,224.136 287.84,224.39 291.645,224.39C295.513,224.39 299.571,224.073 303.693,223.502C309.844,222.614 314.473,219.444 317.58,214.054C320.687,208.537 322.399,202.64 322.653,196.552C322.78,193.635 323.668,191.352 325.697,188.879C327.153,186.976 326.963,183.869 326.646,182.094ZM244.021,197.249C243.958,198.644 243.831,200.039 243.704,201.434C242.563,209.931 237.997,214.75 229.626,216.209C227.47,216.589 225.378,216.716 223.285,216.843C222.461,216.906 221.636,216.97 220.875,217.033C219.924,216.97 219.036,216.97 218.148,216.906C216.246,216.843 214.407,216.779 212.695,216.589C206.1,215.891 201.978,213.291 200.203,208.599C198.872,205.175 198.047,201.116 197.857,196.931C197.477,190.336 198.998,188.307 205.657,186.468C210.032,185.263 214.661,184.629 219.861,184.629C222.715,184.629 225.758,184.819 229.119,185.2C232.734,185.58 236.475,186.468 240.216,187.863C243.133,188.941 244.528,191.161 244.274,194.395C244.148,195.41 244.084,196.361 244.021,197.249ZM314.154,196.932C313.9,201.117 313.076,205.175 311.808,208.6C309.969,213.292 305.911,215.892 299.316,216.59C297.541,216.78 295.765,216.844 293.863,216.907C292.975,216.97 292.024,216.97 291.073,217.034C290.312,216.971 289.488,216.907 288.663,216.844C286.634,216.717 284.478,216.59 282.385,216.21C274.015,214.751 269.386,209.932 268.308,201.435C268.118,200.04 267.991,198.645 267.928,197.25C267.865,196.363 267.801,195.411 267.738,194.397C267.421,191.163 268.816,188.943 271.733,187.865C275.538,186.47 279.279,185.582 282.893,185.202C286.254,184.822 289.234,184.631 292.088,184.631C297.287,184.631 301.917,185.265 306.292,186.47C312.949,188.308 314.534,190.337 314.154,196.932Z" style="fill:white;fill-rule:nonzero;"/>
        </g>
    </g>
</svg>
