<?xml version="1.0" encoding="UTF-8"?>
<svg fill="#FFFFFF" width="100pt" height="100pt" version="1.1" viewBox="0 0 100 100" xmlns="http://www.w3.org/2000/svg">
 <path d="m56.574 49.609l-4.9805 4.9805v-14.543c0-0.82812-0.67188-1.5-1.5-1.5s-1.5 0.67188-1.5 1.5v14.543l-4.9805-4.9805c-0.58594-0.58594-1.5352-0.58594-2.1211 0-0.58594 0.58594-0.58594 1.5352 0 2.1211l7.5312 7.5312c0.14062 0.14453 0.3125 0.26172 0.50391 0.33984 0.007812 0.003907 0.011718 0.003907 0.015625 0.003907 0.17188 0.066406 0.35547 0.10547 0.55078 0.10547h0.003906c0.19141 0 0.37109-0.039063 0.53906-0.10547 0.011719-0.003907 0.019531-0.003907 0.03125-0.011719 0.17969-0.074219 0.34375-0.18359 0.48047-0.31641 0.003906-0.003906 0.007812-0.003906 0.011718-0.007813l7.5391-7.5391c0.58594-0.58594 0.58594-1.5352 0-2.1211-0.58984-0.58594-1.5391-0.58594-2.125 0zm32.777 10.727h-1.7773v-42.906h1.7773c2.6367 0 4.7773-2.1445 4.7773-4.7773 0-2.6367-2.1445-4.7812-4.7773-4.7812h-37.852v-3.418c0-0.82812-0.67188-1.5-1.5-1.5s-1.5 0.67188-1.5 1.5v3.418h-37.852c-2.6367 0-4.7773 2.1445-4.7773 4.7773 0 2.6328 2.1445 4.7773 4.7773 4.7773h1.7773v42.91h-1.7773c-2.6367 0-4.7773 2.1445-4.7773 4.7773 0 2.6367 2.1445 4.7773 4.7773 4.7773h35.504l-26.68 24.551c-0.60938 0.5625-0.64844 1.5117-0.089844 2.1172 0.29688 0.32031 0.69922 0.48438 1.1055 0.48438 0.36328 0 0.72656-0.13281 1.0156-0.39453l26.996-24.836v23.734c0 0.82812 0.67188 1.5 1.5 1.5s1.5-0.67188 1.5-1.5v-23.734l26.996 24.84c0.28906 0.26562 0.65234 0.39453 1.0156 0.39453 0.40234 0 0.80859-0.16406 1.1055-0.48438 0.5625-0.60938 0.51953-1.5586-0.089844-2.1172l-26.68-24.551h35.504c2.6367 0 4.7773-2.1445 4.7773-4.7773 0-2.6328-2.1445-4.7812-4.7773-4.7812zm-73.922-42.906h69.145v42.91l-17.023-0.003906c2.0859-3.2344 3.3125-7.0781 3.3125-11.207 0-8.5273-5.1094-16.094-13.02-19.27-2.4609-0.99219-5.0664-1.4922-7.7461-1.4922-10.465 0-19.32 7.8164-20.605 18.188-0.10547 0.84766-0.16016 1.7188-0.16016 2.5781 0 4.1289 1.2266 7.9727 3.3125 11.207h-17.215zm-4.7812 49.465c-0.98047 0-1.7773-0.79688-1.7773-1.7773 0-0.98047 0.79688-1.7773 1.7773-1.7773h24.34c1.2969 1.3789 2.7773 2.5742 4.4062 3.5586zm39.445 0c-9.7969 0-17.766-7.9688-17.766-17.766 0-0.73828 0.046875-1.4844 0.13672-2.2109 1.0977-8.8672 8.6758-15.555 17.629-15.555 2.2969 0 4.5234 0.42969 6.6289 1.2773 6.7656 2.7227 11.141 9.1914 11.141 16.488-0.003906 9.7969-7.9727 17.766-17.77 17.766zm39.258 0h-28.562c1.6289-0.98438 3.1094-2.1797 4.4102-3.5586h24.152c0.98047 0 1.7773 0.79687 1.7773 1.7773 0 0.98438-0.79688 1.7812-1.7773 1.7812z"/>
</svg>
