<?xml version="1.0" encoding="UTF-8"?>
<svg fill="#FFFFFF" width="100pt" height="100pt" version="1.1" viewBox="0 0 100 100" xmlns="http://www.w3.org/2000/svg">
 <g>
  <path d="m31.777 19.512c-3.0664 1.332-4.1797 5.5117-2.043 7.7773 1.6016 1.6875 3.6445 2.2227 5.4648 1.4648 3.6875-1.5547 4.3555-5.7773 1.3789-8.4453-1.0664-0.93359-3.5547-1.332-4.8008-0.80078z"/>
  <path d="m17.602 20.711c-1.1992 1.1992-0.80078 2.1797 2.3984 5.7773 9.0664 10.223 12.445 14.621 13.688 17.602 1.2461 3.1562 2.2656 3.8203 3.4219 2.2656 0.39844-0.48828 1.2461-0.75391 2.7109-0.80078 1.1992-0.042969 2.6211-0.22266 3.1562-0.39844 1.1562-0.35547 2.9766-3.6445 2.5781-4.668-0.57813-1.5117-0.97656-4.4883-0.57813-4.4883 0.66797 0 3.0234 1.9102 3.0234 2.4453 0 0.26563-0.71094 1.8203-1.6016 3.4648-1.6016 3.0664-1.6875 4.0898-0.35547 5.4219 0.39844 0.35547 0.48828 0.66797 0.26562 0.66797s-0.66797-0.3125-0.97656-0.66797c-0.3125-0.35547-0.80078-0.66797-1.1562-0.66797-1.0234 0-2.8438 1.0234-2.8438 1.6016 0 0.75391-2.7109 1.6445-3.2891 1.0664-0.22266-0.22266-0.93359-0.44531-1.5117-0.44531-0.89062 0-1.0234 0.17969-0.84375 0.93359 0.13281 0.53516-0.39844 2.8008-1.2891 5.2461-1.0234 2.7539-1.4648 4.668-1.2891 5.3789 0.35547 1.3789 7.1562 10.355 8.1328 10.711 1.1094 0.39844 2.6211-0.3125 2.9766-1.3789 0.22266-0.66797-0.44531-2.1797-2.4453-5.6016l-2.7109-4.668 1.6875-2.9336c0.93359-1.6445 1.9102-3.0234 2.2227-3.1094 0.26562-0.089844 2.3125 3.3789 4.7539 8.2656 4.3555 8.6211 5.0664 9.5117 6.8906 8.5352 1.7344-0.93359 1.5117-2-2.5781-12.488l-3.957-10.223 2.3125-3.5117c3.3789-5.0234 3.7344-6.043 2.7539-7.7773-0.75391-1.3789-4-4.2227-7.5117-6.6211-2.5781-1.7344-5.332-1.6875-7.2461 0.17969-0.75391 0.75391-2.1328 1.5117-3.0234 1.7344-3.1562 0.71094-4.4883-0.089844-10.398-6.043-2.9766-3.0234-5.7344-5.5117-6.0898-5.5117-0.3125 0-0.93359 0.3125-1.2891 0.71094z"/>
  <path d="m48.621 29.555c5.5547 4.3125 6.9336 5.8672 6.9336 7.9102 0 1.3789-1.5547 4.6211-3.8203 8.043l-1.5117 2.2656 1.332 3.5117c0.71094 1.957 1.5547 3.6875 1.8672 3.9102 3.4219 2.3125 9.332 4.1328 11.512 3.6016 1.0234-0.26562 1.0664-0.57812 0.17969-1.7344-0.80078-1.0664-0.84375-2.5781-0.089843-3.1562 1.0234-0.84375 3.6445-1.4648 9.0664-2.1328 5.1562-0.62109 7.6875-1.2891 7.6875-2 0-0.17969-0.3125-0.57813-0.66797-0.89063-1.0234-0.84375-0.80078-1.1992 1.0234-1.8203 0.89063-0.26562 2.5781-0.97656 3.7344-1.6016 3.0664-1.5117 2.8008-2.8906-0.93359-4.8008-1.2891-0.62109-38-13.109-38.621-13.109-0.13281 0 0.89062 0.89062 2.3125 2z"/>
 </g>
</svg>
