<svg fill="#FFFFFF" xmlns="http://www.w3.org/2000/svg" xmlns:xlink="http://www.w3.org/1999/xlink" version="1.1" x="0px" y="0px" viewBox="0 0 64 64" enable-background="new 0 0 64 64" xml:space="preserve"><g display="none"><rect x="-11.005" y="-97.479" display="inline" fill="#FFFFFF" width="786.5" height="405.5"></rect></g><g display="none"><g display="inline"><g><path d="M0,43.333l0-38.75c0-0.688,0.588-1.25,1.306-1.25h61.388c0.718,0,1.306,0.562,1.306,1.25v38.75H0z"></path></g><g><path fill="#FFFFFF" d="M64,43.333v5.333C64,49.4,63.412,50,62.694,50H1.306C0.588,50,0,49.4,0,48.667l0-5.333H64z"></path></g><g><polygon fill="#FFFFFF" points="41.333,59.333 22.667,59.333 24,50 40,50    "></polygon></g><g><rect x="18" y="59.333" fill="#FFFFFF" width="28" height="1.333"></rect></g><g opacity="0.2"><path fill="#FFFFFF" d="M28.328,3.333H1.306C0.588,3.333,0,3.896,0,4.583v22.432L28.328,3.333z"></path></g><g><defs><polygon id="b" points="41.333,59.333 22.667,59.333 24,50 40,50     "></polygon></defs><clipPath id="a"><use xlink:href="#b" overflow="visible"></use></clipPath><g clip-path="url(#a)"><rect x="21.971" y="50" fill="#FFFFFF" width="20.058" height="3.15"></rect></g></g></g><g display="inline"><rect x="19.603" y="31.954" fill="#FFFFFF" width="5.22" height="1.305"></rect></g><g display="inline"><rect x="20.908" y="29.344" fill="#FFFFFF" width="2.61" height="1.305"></rect></g><g display="inline"><rect x="19.603" y="18.903" fill="#FFFFFF" width="5.22" height="1.305"></rect></g><g display="inline"><rect x="19.603" y="13.682" fill="#FFFFFF" width="5.22" height="1.305"></rect></g><g display="inline"><rect x="33.959" y="26.733" fill="#FFFFFF" width="6.525" height="1.305"></rect></g><g display="inline"><rect x="35.264" y="24.123" fill="#FFFFFF" width="5.22" height="1.305"></rect></g><g display="inline"><rect x="24.476" y="34.564" fill="#FFFFFF" width="10.789" height="1.305"></rect></g><g display="inline"><rect x="28.739" y="26.733" fill="#FFFFFF" width="2.61" height="1.305"></rect></g><g display="inline"><rect x="30.044" y="24.123" fill="#FFFFFF" width="2.61" height="1.305"></rect></g><g display="inline"><rect x="37.874" y="21.513" fill="#FFFFFF" width="2.61" height="1.305"></rect></g><g display="inline"><rect x="31.349" y="21.513" fill="#FFFFFF" width="2.61" height="1.305"></rect></g><g display="inline"><rect x="28.739" y="13.682" fill="#FFFFFF" width="3.915" height="1.305"></rect></g><g display="inline"><rect x="44.4" y="26.733" fill="#FFFFFF" width="2.61" height="1.305"></rect></g><g display="inline"><rect x="27.434" y="18.903" fill="#FFFFFF" width="5.22" height="1.305"></rect></g><g display="inline"><rect x="33.959" y="18.903" fill="#FFFFFF" width="5.22" height="1.305"></rect></g><g display="inline"><rect x="41.79" y="18.903" fill="#FFFFFF" width="5.22" height="1.305"></rect></g><g display="inline"><rect x="21.083" y="16.04" fill="#FFFFFF" width="4.907" height="1.305"></rect></g><g display="inline"><rect x="19.603" y="11.072" fill="#FFFFFF" width="13.051" height="1.305"></rect></g><g display="inline"><rect x="36.569" y="11.072" fill="#FFFFFF" width="5.22" height="1.305"></rect></g><g display="inline"><rect x="28.739" y="31.954" fill="#FFFFFF" width="7.831" height="1.305"></rect></g><g display="inline"><rect x="26.129" y="29.344" fill="#FFFFFF" width="7.831" height="1.305"></rect></g><g display="inline"><rect x="19.603" y="21.513" fill="#FFFFFF" width="7.831" height="1.305"></rect></g><g display="inline"><rect x="18.298" y="26.733" fill="#FFFFFF" width="7.831" height="1.305"></rect></g><g display="inline"><rect x="16.993" y="24.123" fill="#FFFFFF" width="7.831" height="1.305"></rect></g></g><g display="none"><polygon display="inline" fill="#FFFFFF" points="22.625,59.45 40.875,59.45 39.889,49.958 24.112,49.958  "></polygon><rect x="1.5" y="4.286" display="inline" fill="#FFFFFF" width="61" height="45.125"></rect><rect x="4" y="7.26" display="inline" width="56" height="32.707"></rect><path display="inline" d="M64,43.967H0V5.47c0-1.219,1.017-2.21,2.266-2.21h59.47C62.984,3.26,64,4.251,64,5.47V43.967z M2,41.967   h60V5.47c0-0.1-0.108-0.21-0.265-0.21H2.266C2.109,5.26,2,5.371,2,5.47V41.967z"></path><path display="inline" d="M61.735,50.418H2.266C1.017,50.418,0,49.391,0,48.127v-6.16h64v6.16   C64,49.391,62.984,50.418,61.735,50.418z M2,43.967v4.16c0,0.158,0.122,0.291,0.266,0.291h59.47c0.144,0,0.265-0.133,0.265-0.291   v-4.16H2z"></path><path display="inline" d="M42.195,59.45h-20.39l1.577-11.031h17.234L42.195,59.45z M24.112,57.45h15.776l-1.006-7.031H25.117   L24.112,57.45z"></path><rect x="17.438" y="57.45" display="inline" width="29.125" height="3.29"></rect><rect x="19.603" y="31.954" display="inline" fill="#FFFFFF" width="5.22" height="1.305"></rect><rect x="20.908" y="29.344" display="inline" fill="#FFFFFF" width="2.61" height="1.305"></rect><rect x="19.603" y="18.903" display="inline" fill="#FFFFFF" width="5.22" height="1.305"></rect><rect x="19.603" y="13.682" display="inline" fill="#FFFFFF" width="5.22" height="1.305"></rect><rect x="33.959" y="26.733" display="inline" fill="#FFFFFF" width="6.525" height="1.305"></rect><rect x="35.264" y="24.123" display="inline" fill="#FFFFFF" width="5.22" height="1.305"></rect><rect x="24.476" y="34.564" display="inline" fill="#FFFFFF" width="10.789" height="1.305"></rect><rect x="28.739" y="26.733" display="inline" fill="#FFFFFF" width="2.61" height="1.305"></rect><rect x="30.044" y="24.123" display="inline" fill="#FFFFFF" width="2.61" height="1.305"></rect><rect x="37.874" y="21.513" display="inline" fill="#FFFFFF" width="2.61" height="1.305"></rect><rect x="31.349" y="21.513" display="inline" fill="#FFFFFF" width="2.61" height="1.305"></rect><rect x="28.739" y="13.682" display="inline" fill="#FFFFFF" width="3.915" height="1.305"></rect><rect x="44.4" y="26.733" display="inline" fill="#FFFFFF" width="2.61" height="1.305"></rect><rect x="27.434" y="18.903" display="inline" fill="#FFFFFF" width="5.22" height="1.305"></rect><rect x="33.959" y="18.903" display="inline" fill="#FFFFFF" width="5.22" height="1.305"></rect><rect x="41.79" y="18.903" display="inline" fill="#FFFFFF" width="5.22" height="1.305"></rect><rect x="21.083" y="16.04" display="inline" fill="#FFFFFF" width="4.907" height="1.305"></rect><rect x="19.603" y="11.072" display="inline" fill="#FFFFFF" width="13.051" height="1.305"></rect><rect x="36.569" y="11.072" display="inline" fill="#FFFFFF" width="5.22" height="1.305"></rect><rect x="28.739" y="31.954" display="inline" fill="#FFFFFF" width="7.831" height="1.305"></rect><rect x="26.129" y="29.344" display="inline" fill="#FFFFFF" width="7.831" height="1.305"></rect><rect x="19.603" y="21.513" display="inline" fill="#FFFFFF" width="7.831" height="1.305"></rect><rect x="18.298" y="26.733" display="inline" fill="#FFFFFF" width="7.831" height="1.305"></rect><rect x="16.993" y="24.123" display="inline" fill="#FFFFFF" width="7.831" height="1.305"></rect></g><g display="none"><polygon display="inline" fill="#FFFFFF" points="22.625,59.45 40.875,59.45 39.889,49.958 24.112,49.958  "></polygon><rect x="1.5" y="4.286" display="inline" fill="#FFFFFF" width="61" height="45.125"></rect><rect x="4" y="7.26" display="inline" width="56" height="32.707"></rect><path display="inline" d="M64,43.967H0V5.47c0-1.219,1.017-2.21,2.266-2.21h59.47C62.984,3.26,64,4.251,64,5.47V43.967z M2,41.967   h60V5.47c0-0.1-0.108-0.21-0.265-0.21H2.266C2.109,5.26,2,5.371,2,5.47V41.967z"></path><path display="inline" d="M61.735,50.418H2.266C1.017,50.418,0,49.391,0,48.127v-6.16h64v6.16   C64,49.391,62.984,50.418,61.735,50.418z M2,43.967v4.16c0,0.158,0.122,0.291,0.266,0.291h59.47c0.144,0,0.265-0.133,0.265-0.291   v-4.16H2z"></path><path display="inline" d="M42.195,59.45h-20.39l1.577-11.031h17.234L42.195,59.45z M24.112,57.45h15.776l-1.006-7.031H25.117   L24.112,57.45z"></path><rect x="17.438" y="57.45" display="inline" width="29.125" height="3.29"></rect><rect x="19.603" y="31.954" display="inline" fill="#FFFFFF" width="5.22" height="1.305"></rect><rect x="20.908" y="29.344" display="inline" fill="#FFFFFF" width="2.61" height="1.305"></rect><rect x="19.603" y="18.903" display="inline" fill="#FFFFFF" width="5.22" height="1.305"></rect><rect x="19.603" y="13.682" display="inline" fill="#FFFFFF" width="5.22" height="1.305"></rect><rect x="33.959" y="26.733" display="inline" fill="#FFFFFF" width="6.525" height="1.305"></rect><rect x="35.264" y="24.123" display="inline" fill="#FFFFFF" width="5.22" height="1.305"></rect><rect x="24.476" y="34.564" display="inline" fill="#FFFFFF" width="10.789" height="1.305"></rect><rect x="28.739" y="26.733" display="inline" fill="#FFFFFF" width="2.61" height="1.305"></rect><rect x="30.044" y="24.123" display="inline" fill="#FFFFFF" width="2.61" height="1.305"></rect><rect x="37.874" y="21.513" display="inline" fill="#FFFFFF" width="2.61" height="1.305"></rect><rect x="31.349" y="21.513" display="inline" fill="#FFFFFF" width="2.61" height="1.305"></rect><rect x="28.739" y="13.682" display="inline" fill="#FFFFFF" width="3.915" height="1.305"></rect><rect x="44.4" y="26.733" display="inline" fill="#FFFFFF" width="2.61" height="1.305"></rect><rect x="27.434" y="18.903" display="inline" fill="#FFFFFF" width="5.22" height="1.305"></rect><rect x="33.959" y="18.903" display="inline" fill="#FFFFFF" width="5.22" height="1.305"></rect><rect x="41.79" y="18.903" display="inline" fill="#FFFFFF" width="5.22" height="1.305"></rect><rect x="21.083" y="16.04" display="inline" fill="#FFFFFF" width="4.907" height="1.305"></rect><rect x="19.603" y="11.072" display="inline" fill="#FFFFFF" width="13.051" height="1.305"></rect><rect x="36.569" y="11.072" display="inline" fill="#FFFFFF" width="5.22" height="1.305"></rect><rect x="28.739" y="31.954" display="inline" fill="#FFFFFF" width="7.831" height="1.305"></rect><rect x="26.129" y="29.344" display="inline" fill="#FFFFFF" width="7.831" height="1.305"></rect><rect x="19.603" y="21.513" display="inline" fill="#FFFFFF" width="7.831" height="1.305"></rect><rect x="18.298" y="26.733" display="inline" fill="#FFFFFF" width="7.831" height="1.305"></rect><rect x="16.993" y="24.123" display="inline" fill="#FFFFFF" width="7.831" height="1.305"></rect></g><g><g><path d="M61.735,3.26H2.266C1.017,3.26,0,4.251,0,5.47v36.497v2v4.16c0,1.264,1.017,2.291,2.266,2.291h20.831l-1.005,7.031h-4.654    v3.29h29.125v-3.29h-4.653l-1.006-7.031h20.832c1.249,0,2.265-1.027,2.265-2.291v-4.16v-2V5.47C64,4.251,62.984,3.26,61.735,3.26z     M24.112,57.45l1.005-7.031h13.766l1.006,7.031H24.112z M62,48.127c0,0.158-0.121,0.291-0.265,0.291H40.617H23.383H2.266    C2.122,48.418,2,48.286,2,48.127v-4.16h60V48.127z M62,41.967H2V5.47c0-0.1,0.109-0.21,0.266-0.21h59.47    C61.892,5.26,62,5.371,62,5.47V41.967z"></path><rect x="19.478" y="31.828" width="5.47" height="1.556"></rect><rect x="20.783" y="29.219" width="2.86" height="1.555"></rect><rect x="19.478" y="18.778" width="5.47" height="1.556"></rect><rect x="19.478" y="13.558" width="5.47" height="1.555"></rect><rect x="33.835" y="26.609" width="6.775" height="1.555"></rect><rect x="35.139" y="23.998" width="5.471" height="1.555"></rect><rect x="24.351" y="34.439" width="11.039" height="1.556"></rect><rect x="28.614" y="26.609" width="2.86" height="1.555"></rect><rect x="29.919" y="23.998" width="2.86" height="1.555"></rect><rect x="37.75" y="21.388" width="2.86" height="1.555"></rect><rect x="31.224" y="21.388" width="2.861" height="1.555"></rect><rect x="28.614" y="13.558" width="4.165" height="1.555"></rect><rect x="44.275" y="26.609" width="2.86" height="1.555"></rect><rect x="27.309" y="18.778" width="5.47" height="1.556"></rect><rect x="33.835" y="18.778" width="5.47" height="1.556"></rect><rect x="41.665" y="18.778" width="5.471" height="1.556"></rect><rect x="20.958" y="15.915" width="5.157" height="1.555"></rect><rect x="19.478" y="10.948" width="13.301" height="1.555"></rect><rect x="36.444" y="10.948" width="5.471" height="1.555"></rect><rect x="28.614" y="31.828" width="8.08" height="1.556"></rect><rect x="26.004" y="29.219" width="8.081" height="1.555"></rect><rect x="19.478" y="21.388" width="8.081" height="1.555"></rect><rect x="18.173" y="26.609" width="8.081" height="1.555"></rect><rect x="16.868" y="23.998" width="8.081" height="1.555"></rect></g></g></svg>