<svg fill="#FFFFFF" xmlns="http://www.w3.org/2000/svg" xmlns:xlink="http://www.w3.org/1999/xlink" version="1.1" x="0px" y="0px" viewBox="0 0 64 64" enable-background="new 0 0 64 64" xml:space="preserve"><g display="none"><rect x="-11" y="-319.5" display="inline" fill="#FFFFFF" width="786.5" height="405.5"></rect></g><g display="none"><g display="inline"><rect x="46.134" y="50.602" transform="matrix(0.7071 -0.7071 0.7071 0.7071 -22.9892 52.8287)" width="12.282" height="7.126"></rect></g><g display="inline"><rect x="50.141" y="56.068" transform="matrix(0.7071 -0.7071 0.7071 0.7071 -24.6486 56.8359)" fill="#FFFFFF" width="12.282" height="4.206"></rect></g><g display="inline"><rect x="45.032" y="46.324" transform="matrix(0.7071 -0.7071 0.7071 0.7071 -21.0326 48.105)" fill="#FFFFFF" width="5.039" height="6.235"></rect></g><g display="inline"><circle cx="28.972" cy="27.082" r="27.082"></circle></g><g display="inline" opacity="0.2"><g><path fill="#FFFFFF" d="M28.972,0C14.015,0,1.889,12.125,1.889,27.082c0,0.639,0.03,1.27,0.074,1.898l47.54-19.549     C44.536,3.66,37.184,0,28.972,0z"></path></g></g><g display="inline"><rect x="18.286" y="35.55" fill="#FFFFFF" width="5.035" height="1.259"></rect></g><g display="inline"><rect x="19.544" y="33.033" fill="#FFFFFF" width="2.517" height="1.259"></rect></g><g display="inline"><rect x="18.286" y="22.964" fill="#FFFFFF" width="5.035" height="1.259"></rect></g><g display="inline"><rect x="18.286" y="17.929" fill="#FFFFFF" width="5.035" height="1.259"></rect></g><g display="inline"><rect x="18.286" y="40.585" fill="#FFFFFF" width="7.552" height="1.259"></rect></g><g display="inline"><rect x="29.614" y="40.585" fill="#FFFFFF" width="6.293" height="1.259"></rect></g><g display="inline"><rect x="32.131" y="30.515" fill="#FFFFFF" width="6.293" height="1.259"></rect></g><g display="inline"><rect x="33.39" y="27.998" fill="#FFFFFF" width="5.035" height="1.259"></rect></g><g display="inline"><rect x="22.985" y="38.067" fill="#FFFFFF" width="10.405" height="1.259"></rect></g><g display="inline"><rect x="27.096" y="30.515" fill="#FFFFFF" width="2.517" height="1.259"></rect></g><g display="inline"><rect x="28.355" y="27.998" fill="#FFFFFF" width="2.517" height="1.259"></rect></g><g display="inline"><rect x="35.907" y="25.481" fill="#FFFFFF" width="2.517" height="1.259"></rect></g><g display="inline"><rect x="29.614" y="25.481" fill="#FFFFFF" width="2.517" height="1.259"></rect></g><g display="inline"><rect x="27.096" y="17.929" fill="#FFFFFF" width="3.776" height="1.259"></rect></g><g display="inline"><rect x="42.2" y="30.515" fill="#FFFFFF" width="2.517" height="1.259"></rect></g><g display="inline"><rect x="25.838" y="22.964" fill="#FFFFFF" width="5.035" height="1.259"></rect></g><g display="inline"><rect x="32.131" y="22.964" fill="#FFFFFF" width="5.035" height="1.259"></rect></g><g display="inline"><rect x="39.683" y="22.964" fill="#FFFFFF" width="5.035" height="1.259"></rect></g><g display="inline"><rect x="19.713" y="20.203" fill="#FFFFFF" width="4.732" height="1.259"></rect></g><g display="inline"><rect x="18.286" y="15.412" fill="#FFFFFF" width="12.586" height="1.259"></rect></g><g display="inline"><rect x="17.027" y="12.894" fill="#FFFFFF" width="15.104" height="1.259"></rect></g><g display="inline"><rect x="37.165" y="12.894" fill="#FFFFFF" width="5.035" height="1.259"></rect></g><g display="inline"><rect x="34.648" y="15.412" fill="#FFFFFF" width="5.035" height="1.259"></rect></g><g display="inline"><rect x="27.096" y="35.55" fill="#FFFFFF" width="7.552" height="1.259"></rect></g><g display="inline"><rect x="24.579" y="33.033" fill="#FFFFFF" width="7.552" height="1.259"></rect></g><g display="inline"><rect x="18.286" y="25.481" fill="#FFFFFF" width="7.552" height="1.259"></rect></g><g display="inline"><rect x="17.027" y="30.515" fill="#FFFFFF" width="7.552" height="1.259"></rect></g><g display="inline"><rect x="15.768" y="27.998" fill="#FFFFFF" width="7.552" height="1.259"></rect></g></g><g display="none"><path display="inline" fill="#FFFFFF" d="M32,0C14.327,0,0,14.327,0,32s14.327,32,32,32s32-14.327,32-32S49.673,0,32,0L32,0z"></path><g display="inline"><rect x="45.032" y="46.324" transform="matrix(0.7071 -0.7071 0.7071 0.7071 -21.0326 48.105)" fill="#FFFFFF" width="5.039" height="6.235"></rect></g><g display="inline"><rect x="48.426" y="50.514" transform="matrix(0.7071 -0.7071 0.7071 0.7071 -23.5241 54.1203)" fill="#FFFFFF" width="10.282" height="9.884"></rect><path d="M53.707,49.741l5.575,5.575l-5.856,5.856l-5.575-5.575L53.707,49.741 M53.707,46.912l-8.684,8.684L53.426,64l8.684-8.684    L53.707,46.912L53.707,46.912z"></path></g><g display="inline"><path fill="#FFFFFF" d="M28.972,53.164c-14.382,0-26.083-11.7-26.083-26.082S14.59,1,28.972,1c14.382,0,26.083,11.7,26.083,26.082    S43.354,53.164,28.972,53.164z"></path><g><path d="M28.972,2c13.83,0,25.082,11.252,25.082,25.082c0,13.83-11.252,25.082-25.082,25.082S3.889,40.913,3.889,27.082     C3.889,13.252,15.141,2,28.972,2 M28.972,0C14.015,0,1.889,12.125,1.889,27.082c0,14.957,12.125,27.082,27.082,27.082     S56.054,42.04,56.054,27.082C56.054,12.125,43.929,0,28.972,0L28.972,0z"></path></g></g><g display="inline"><circle cx="28.972" cy="27.082" r="23.112"></circle></g><rect x="18.286" y="35.55" display="inline" fill="#FFFFFF" width="5.035" height="1.259"></rect><rect x="19.544" y="33.033" display="inline" fill="#FFFFFF" width="2.517" height="1.259"></rect><rect x="18.286" y="22.964" display="inline" fill="#FFFFFF" width="5.035" height="1.259"></rect><rect x="18.286" y="17.929" display="inline" fill="#FFFFFF" width="5.035" height="1.259"></rect><rect x="18.286" y="40.585" display="inline" fill="#FFFFFF" width="7.552" height="1.259"></rect><rect x="29.614" y="40.585" display="inline" fill="#FFFFFF" width="6.293" height="1.259"></rect><rect x="32.131" y="30.515" display="inline" fill="#FFFFFF" width="6.293" height="1.259"></rect><rect x="33.39" y="27.998" display="inline" fill="#FFFFFF" width="5.035" height="1.259"></rect><rect x="22.985" y="38.067" display="inline" fill="#FFFFFF" width="10.405" height="1.259"></rect><rect x="27.096" y="30.515" display="inline" fill="#FFFFFF" width="2.517" height="1.259"></rect><rect x="28.355" y="27.998" display="inline" fill="#FFFFFF" width="2.517" height="1.259"></rect><rect x="35.907" y="25.481" display="inline" fill="#FFFFFF" width="2.517" height="1.259"></rect><rect x="29.614" y="25.481" display="inline" fill="#FFFFFF" width="2.517" height="1.259"></rect><rect x="27.096" y="17.929" display="inline" fill="#FFFFFF" width="3.776" height="1.259"></rect><rect x="42.2" y="30.515" display="inline" fill="#FFFFFF" width="2.517" height="1.259"></rect><rect x="25.838" y="22.964" display="inline" fill="#FFFFFF" width="5.035" height="1.259"></rect><rect x="32.131" y="22.964" display="inline" fill="#FFFFFF" width="5.035" height="1.259"></rect><rect x="39.683" y="22.964" display="inline" fill="#FFFFFF" width="5.035" height="1.259"></rect><rect x="19.713" y="20.203" display="inline" fill="#FFFFFF" width="4.732" height="1.259"></rect><rect x="18.286" y="15.412" display="inline" fill="#FFFFFF" width="12.586" height="1.259"></rect><rect x="17.027" y="12.894" display="inline" fill="#FFFFFF" width="15.104" height="1.259"></rect><rect x="37.165" y="12.894" display="inline" fill="#FFFFFF" width="5.035" height="1.259"></rect><rect x="34.648" y="15.412" display="inline" fill="#FFFFFF" width="5.035" height="1.259"></rect><rect x="27.096" y="35.55" display="inline" fill="#FFFFFF" width="7.552" height="1.259"></rect><rect x="24.579" y="33.033" display="inline" fill="#FFFFFF" width="7.552" height="1.259"></rect><rect x="18.286" y="25.481" display="inline" fill="#FFFFFF" width="7.552" height="1.259"></rect><rect x="17.027" y="30.515" display="inline" fill="#FFFFFF" width="7.552" height="1.259"></rect><rect x="15.768" y="27.998" display="inline" fill="#FFFFFF" width="7.552" height="1.259"></rect></g><g display="none"><g display="inline"><rect x="45.032" y="46.324" transform="matrix(0.7071 -0.7071 0.7071 0.7071 -21.0326 48.105)" width="5.039" height="6.235"></rect></g><g display="inline"><rect x="48.426" y="50.514" transform="matrix(0.7071 -0.7071 0.7071 0.7071 -23.5241 54.1203)" fill="#FFFFFF" width="10.282" height="9.884"></rect><path d="M53.707,49.741l5.575,5.575l-5.856,5.856l-5.575-5.575L53.707,49.741 M53.707,46.912l-8.684,8.684L53.426,64l8.684-8.684    L53.707,46.912L53.707,46.912z"></path></g><g display="inline"><path fill="#FFFFFF" d="M28.972,53.164c-14.382,0-26.083-11.7-26.083-26.082S14.59,1,28.972,1c14.382,0,26.083,11.7,26.083,26.082    S43.354,53.164,28.972,53.164z"></path><g><path d="M28.972,2c13.83,0,25.082,11.252,25.082,25.082c0,13.83-11.252,25.082-25.082,25.082S3.889,40.913,3.889,27.082     C3.889,13.252,15.141,2,28.972,2 M28.972,0C14.015,0,1.889,12.125,1.889,27.082c0,14.957,12.125,27.082,27.082,27.082     S56.054,42.04,56.054,27.082C56.054,12.125,43.929,0,28.972,0L28.972,0z"></path></g></g><g display="inline"><circle cx="28.972" cy="27.082" r="23.112"></circle></g><rect x="18.286" y="35.55" display="inline" fill="#FFFFFF" width="5.035" height="1.259"></rect><rect x="19.544" y="33.033" display="inline" fill="#FFFFFF" width="2.517" height="1.259"></rect><rect x="18.286" y="22.964" display="inline" fill="#FFFFFF" width="5.035" height="1.259"></rect><rect x="18.286" y="17.929" display="inline" fill="#FFFFFF" width="5.035" height="1.259"></rect><rect x="18.286" y="40.585" display="inline" fill="#FFFFFF" width="7.552" height="1.259"></rect><rect x="29.614" y="40.585" display="inline" fill="#FFFFFF" width="6.293" height="1.259"></rect><rect x="32.131" y="30.515" display="inline" fill="#FFFFFF" width="6.293" height="1.259"></rect><rect x="33.39" y="27.998" display="inline" fill="#FFFFFF" width="5.035" height="1.259"></rect><rect x="22.985" y="38.067" display="inline" fill="#FFFFFF" width="10.405" height="1.259"></rect><rect x="27.096" y="30.515" display="inline" fill="#FFFFFF" width="2.517" height="1.259"></rect><rect x="28.355" y="27.998" display="inline" fill="#FFFFFF" width="2.517" height="1.259"></rect><rect x="35.907" y="25.481" display="inline" fill="#FFFFFF" width="2.517" height="1.259"></rect><rect x="29.614" y="25.481" display="inline" fill="#FFFFFF" width="2.517" height="1.259"></rect><rect x="27.096" y="17.929" display="inline" fill="#FFFFFF" width="3.776" height="1.259"></rect><rect x="42.2" y="30.515" display="inline" fill="#FFFFFF" width="2.517" height="1.259"></rect><rect x="25.838" y="22.964" display="inline" fill="#FFFFFF" width="5.035" height="1.259"></rect><rect x="32.131" y="22.964" display="inline" fill="#FFFFFF" width="5.035" height="1.259"></rect><rect x="39.683" y="22.964" display="inline" fill="#FFFFFF" width="5.035" height="1.259"></rect><rect x="19.713" y="20.203" display="inline" fill="#FFFFFF" width="4.732" height="1.259"></rect><rect x="18.286" y="15.412" display="inline" fill="#FFFFFF" width="12.586" height="1.259"></rect><rect x="17.027" y="12.894" display="inline" fill="#FFFFFF" width="15.104" height="1.259"></rect><rect x="37.165" y="12.894" display="inline" fill="#FFFFFF" width="5.035" height="1.259"></rect><rect x="34.648" y="15.412" display="inline" fill="#FFFFFF" width="5.035" height="1.259"></rect><rect x="27.096" y="35.55" display="inline" fill="#FFFFFF" width="7.552" height="1.259"></rect><rect x="24.579" y="33.033" display="inline" fill="#FFFFFF" width="7.552" height="1.259"></rect><rect x="18.286" y="25.481" display="inline" fill="#FFFFFF" width="7.552" height="1.259"></rect><rect x="17.027" y="30.515" display="inline" fill="#FFFFFF" width="7.552" height="1.259"></rect><rect x="15.768" y="27.998" display="inline" fill="#FFFFFF" width="7.552" height="1.259"></rect></g><g><g><path d="M51.146,49.473l-3.135-3.135c4.965-4.909,8.043-11.722,8.043-19.256C56.054,12.125,43.929,0,28.972,0    S1.889,12.125,1.889,27.082c0,14.957,12.125,27.082,27.082,27.082c5.602,0,10.807-1.701,15.126-4.615l3.486,3.486l-2.561,2.561    L53.426,64l8.684-8.684l-8.403-8.403L51.146,49.473z M28.972,52.165c-13.83,0-25.082-11.252-25.082-25.082    C3.889,13.252,15.141,2,28.972,2s25.082,11.252,25.082,25.082C54.054,40.913,42.802,52.165,28.972,52.165z M53.426,61.172    l-5.575-5.575l5.856-5.856l5.575,5.575L53.426,61.172z"></path><rect x="18.161" y="35.425" width="5.285" height="1.509"></rect><rect x="19.419" y="32.907" width="2.767" height="1.509"></rect><rect x="18.161" y="22.838" width="5.285" height="1.509"></rect><rect x="18.161" y="17.804" width="5.285" height="1.509"></rect><rect x="18.161" y="40.459" width="7.802" height="1.509"></rect><rect x="29.489" y="40.459" width="6.543" height="1.509"></rect><rect x="32.006" y="30.391" width="6.543" height="1.508"></rect><rect x="33.264" y="27.873" width="5.285" height="1.509"></rect><rect x="22.86" y="37.943" width="10.654" height="1.509"></rect><rect x="26.971" y="30.391" width="2.768" height="1.508"></rect><rect x="28.23" y="27.873" width="2.767" height="1.509"></rect><rect x="35.782" y="25.356" width="2.768" height="1.509"></rect><rect x="29.489" y="25.356" width="2.767" height="1.509"></rect><rect x="26.971" y="17.804" width="4.026" height="1.509"></rect><rect x="42.075" y="30.391" width="2.768" height="1.508"></rect><rect x="25.712" y="22.838" width="5.285" height="1.509"></rect><rect x="32.006" y="22.838" width="5.285" height="1.509"></rect><rect x="39.558" y="22.838" width="5.284" height="1.509"></rect><rect x="19.588" y="20.078" width="4.982" height="1.508"></rect><rect x="18.161" y="15.286" width="12.836" height="1.509"></rect><rect x="16.902" y="12.77" width="15.354" height="1.509"></rect><rect x="37.041" y="12.77" width="5.284" height="1.509"></rect><rect x="34.523" y="15.286" width="5.285" height="1.509"></rect><rect x="26.971" y="35.425" width="7.802" height="1.509"></rect><rect x="24.454" y="32.907" width="7.802" height="1.509"></rect><rect x="18.161" y="25.356" width="7.802" height="1.509"></rect><rect x="16.902" y="30.391" width="7.802" height="1.508"></rect><rect x="15.644" y="27.873" width="7.802" height="1.509"></rect></g></g></svg>