<svg fill="#FFFFFF" xmlns="http://www.w3.org/2000/svg" xmlns:xlink="http://www.w3.org/1999/xlink" version="1.1" x="0px" y="0px" viewBox="0 0 100 100" style="enable-background:new 0 0 100 100;" xml:space="preserve"><g><circle cx="97.8" cy="841" r="2.2"></circle><circle cx="104.9" cy="841" r="2.2"></circle><circle cx="111.9" cy="841" r="2.2"></circle><path d="M158.8,876h-51.1c-0.8,0-1.5,0.7-1.5,1.5s0.7,1.5,1.5,1.5h51.1c0.8,0,1.5-0.7,1.5-1.5S159.6,876,158.8,876z"></path><path d="M150.3,883h-34c-0.8,0-1.5,0.7-1.5,1.5s0.7,1.5,1.5,1.5h34c0.8,0,1.5-0.7,1.5-1.5S151.1,883,150.3,883z"></path><path d="M169.7,832.8H96.8c-4.5,0-8.2,3.7-8.2,8.2l0,47.6c0,4.5,3.7,8.2,8.2,8.2h72.9c4.5,0,8.2-3.7,8.2-8.2l0-47.6   C177.9,836.5,174.2,832.8,169.7,832.8z M174.9,888.5c0,2.8-2.3,5.2-5.2,5.2H96.8c-2.8,0-5.2-2.3-5.2-5.2l0-47.6   c0-2.8,2.3-5.2,5.2-5.2h72.9c2.8,0,5.2,2.3,5.2,5.2L174.9,888.5z"></path><path d="M143,854.3l-0.4-2.2l-2.3,0.1c-0.6,0-3.6-0.1-4.8-2.2l-2.2-3.5L131,850c-1.3,2.1-4.4,2.1-4.7,2.1l-2.3-0.1l-0.4,2.2   c-0.1,0.3-0.6,3.2,0.2,6.7c0.7,3.4,2.8,8,8.5,10.5l1.1,0.5l1.1-0.5c5.8-2.5,7.8-7.1,8.6-10.5C143.6,857.5,143.1,854.6,143,854.3z    M140.1,860.4c-0.6,2.7-2.2,6.4-6.8,8.5c-4.6-2.1-6.3-5.7-6.8-8.5c-0.5-2.6-0.3-4.8-0.2-5.4c0.9,0,5-0.2,7-3.2c2,3,6,3.2,7,3.2   C140.4,855.6,140.6,857.8,140.1,860.4z"></path><polygon points="132.6,860.4 131.1,858.9 129.1,860.8 132.6,864.3 137.9,859 135.9,857.1  "></polygon></g><circle cx="13.8" cy="26" r="2.2"></circle><circle cx="20.9" cy="26" r="2.2"></circle><circle cx="27.9" cy="26" r="2.2"></circle><path d="M74.8,61H23.7c-0.8,0-1.5,0.7-1.5,1.5s0.7,1.5,1.5,1.5h51.1c0.8,0,1.5-0.7,1.5-1.5S75.6,61,74.8,61z"></path><path d="M66.3,68h-34c-0.8,0-1.5,0.7-1.5,1.5s0.7,1.5,1.5,1.5h34c0.8,0,1.5-0.7,1.5-1.5S67.1,68,66.3,68z"></path><path d="M85.7,17.8H12.8c-4.5,0-8.2,3.7-8.2,8.2l0,47.6c0,4.5,3.7,8.2,8.2,8.2h72.9c4.5,0,8.2-3.7,8.2-8.2l0-47.6  C93.9,21.5,90.2,17.8,85.7,17.8z M90.9,73.5c0,2.8-2.3,5.2-5.2,5.2H12.8c-2.8,0-5.2-2.3-5.2-5.2l0-47.6c0-2.8,2.3-5.2,5.2-5.2h72.9  c2.8,0,5.2,2.3,5.2,5.2L90.9,73.5z"></path><path d="M59,39.3l-0.4-2.2l-2.3,0.1c-0.6,0-3.6-0.1-4.8-2.2l-2.2-3.5L47,35c-1.3,2.1-4.4,2.1-4.7,2.1l-2.3-0.1l-0.4,2.2  c-0.1,0.3-0.6,3.2,0.2,6.7c0.7,3.4,2.8,8,8.5,10.5l1.1,0.5l1.1-0.5c5.8-2.5,7.8-7.1,8.6-10.5C59.6,42.5,59.1,39.6,59,39.3z   M56.1,45.4c-0.6,2.7-2.2,6.4-6.8,8.5c-4.6-2.1-6.3-5.7-6.8-8.5c-0.5-2.6-0.3-4.8-0.2-5.4c0.9,0,5-0.2,7-3.2c2,3,6,3.2,7,3.2  C56.4,40.6,56.6,42.8,56.1,45.4z"></path><polygon points="48.6,45.4 47.1,43.9 45.1,45.8 48.6,49.3 53.9,44 51.9,42.1 "></polygon></svg>