<svg fill="#FFFFFF" xmlns="http://www.w3.org/2000/svg" xmlns:xlink="http://www.w3.org/1999/xlink" version="1.1" x="0px" y="0px" viewBox="0 0 512 512" enable-background="new 0 0 512 512" xml:space="preserve"><g><path fill="#FFFFFF" d="M465.259,27.07h-13.901h-7.704H48.981c-28.053,0-39.777,11.64-39.777,39.526   c-0.084,97.894-0.084,195.787,0,293.597c0,27.635,11.305,39.107,38.688,39.107c52.171,0.084,104.426,0.084,156.597,0   c-0.168,2.931-0.419,5.862-0.586,8.793c-0.586,8.625-0.921,17.334-2.094,25.876c-0.335,2.512-0.921,4.857-1.759,7.118   c-2.512,7.62-7.536,13.817-14.738,18.339c-2.68,1.674-5.36,3.266-8.039,4.94c-4.689,2.847-9.463,5.611-14.068,8.542   c-2.094,1.256-4.103,3.182-5.108,5.276c-1.591,3.433-0.084,5.945,3.768,6.615c1.256,0.168,2.513,0,3.768,0   c60.796,0,121.593,0.084,182.305,0c3.266,0,7.536,1.173,8.458-3.517c0.837-4.187-2.177-6.532-5.443-8.458   c-4.94-2.931-9.881-5.946-14.822-8.877c-1.842-1.172-3.685-2.261-5.527-3.35c-7.62-4.522-12.896-10.468-15.827-17.92   c-1.507-3.601-2.344-7.621-2.68-11.975c-0.67-10.3-1.591-20.684-2.428-31.403h155.592c25.792,0,37.6-11.975,37.6-38.018V64.251   C502.775,39.463,490.214,27.07,465.259,27.07z M274.412,371.247c-3.852,6.783-11.054,11.389-18.925,11.054   c-7.788-0.251-14.404-4.689-17.921-11.054c-1.759-3.182-2.764-6.951-2.764-10.97c0.168-11.807,9.63-21.438,21.187-21.522   c11.975,0,21.354,10.049,21.102,22.61C277.008,364.882,276.004,368.316,274.412,371.247z M462.328,320.499   c-137.168-0.251-274.337-0.168-411.505-0.168c-14.236,0-14.655-0.502-14.655-14.906V71.201c0-16.664,0.167-16.748,17.334-16.748   c49.544-0.08,322.31-0.084,390.151-0.084h7.704h9.212c14.487,0,15.157,0.586,15.157,14.571   c0.084,79.219-0.084,158.355,0.251,237.49C476.062,316.647,473.131,320.499,462.328,320.499z"></path><path fill="#FFFFFF" d="M256.982,77.572c-7.352,0.452-13.794,0.594-20.176,1.29c-15.444,1.684-26.669,9.196-31.458,24.474   c-2.091,6.672-3.44,13.595-4.786,20.47c-0.414,2.117-1.081,2.739-3.138,2.994c-9.654,1.198-19.349,2.241-28.899,4.035   c-7.908,1.486-15.589,4.128-21.803,9.626c-7.381,6.53-6.303,15.608,1.522,21.161c9.151,6.494,21.134,3.65,31.568,3.553   c5.743-0.054,11.487-0.09,17.231-0.124c16.912-0.1,33.825-0.165,50.737-0.215c17.966-0.053,35.932-0.087,53.898-0.075   c10.205,0.007,20.726,0.013,31.049,0.237c9.46,0.205,20.244,2.526,29.137-1.646c6.529-3.063,10.136-9.834,7.556-16.817   c-3.118-8.439-13.633-12.08-21.455-14.524c-10.89-3.402-22.207-4.52-33.545-5.245c-1.987-0.127-2.548-0.859-2.94-2.82   c-1.373-6.872-2.682-13.805-4.777-20.475c-4.397-13.996-14.203-22.089-28.714-24.073C270.744,78.41,263.403,78.111,256.982,77.572z   "></path><path fill="#FFFFFF" d="M312.162,240.533c-15.927-2.866-31.846-5.781-47.794-8.523c-3.7-0.636-7.593-1.343-11.24-0.851   c-9.023,1.218-17.954,3.109-26.922,4.734c-9.235,1.674-18.468,3.353-28.631,5.199c3.459,10.143,20.154,39.403,29.065,46.625   c10.141,8.218,23.386,11.954,36.316,10.032c26.466-3.935,45.164-32.551,51.436-56.596   C313.575,240.922,312.881,240.662,312.162,240.533z"></path><path fill="#FFFFFF" d="M326.646,182.094c-0.317-2.283-4.439-2.981-4.502-2.981c-5.2-0.697-9.766-1.141-13.887-1.458   c-6.278-0.38-11.858-0.571-17.058-0.571c-7.356,0-14.078,0.38-20.482,1.205c-4.692,0.571-9.702,1.078-14.711,1.205   c-5.073-0.127-10.083-0.634-14.712-1.205c-6.468-0.824-13.126-1.205-20.545-1.205c-5.2,0-10.717,0.19-16.995,0.571   c-4.185,0.317-8.75,0.761-13.95,1.458c0,0-4.122,0.697-4.502,2.981c-0.254,1.775-0.507,4.882,1.014,6.785   c1.966,2.473,2.854,4.756,2.981,7.673c0.254,6.088,1.966,11.985,5.136,17.502c3.044,5.39,7.736,8.56,13.887,9.448   c4.122,0.571,8.18,0.888,11.985,0.888c3.868,0,7.609-0.254,11.224-0.888c8.561-1.331,14.522-6.214,17.248-14.014   c1.395-4.058,2.283-8.37,3.171-12.492c0.253-1.141,0.507-2.283,0.761-3.424c0.57-2.664,1.458-3.171,3.298-3.234   c1.775,0.063,2.663,0.57,3.297,3.234c0.254,1.141,0.444,2.283,0.698,3.424c0.887,4.122,1.839,8.434,3.234,12.492   c2.664,7.8,8.624,12.682,17.185,14.014c3.615,0.634,7.419,0.888,11.224,0.888c3.868,0,7.926-0.317,12.048-0.888   c6.151-0.888,10.78-4.058,13.887-9.448c3.107-5.517,4.819-11.414,5.073-17.502c0.127-2.917,1.015-5.2,3.044-7.673   C327.153,186.976,326.963,183.869,326.646,182.094z M244.021,197.249c-0.063,1.395-0.19,2.79-0.317,4.185   c-1.141,8.497-5.707,13.316-14.078,14.775c-2.156,0.38-4.248,0.507-6.341,0.634c-0.824,0.063-1.649,0.127-2.41,0.19   c-0.951-0.063-1.839-0.063-2.727-0.127c-1.902-0.063-3.741-0.127-5.453-0.317c-6.595-0.698-10.717-3.298-12.492-7.99   c-1.331-3.424-2.156-7.483-2.346-11.668c-0.38-6.595,1.141-8.624,7.8-10.463c4.375-1.205,9.004-1.839,14.204-1.839   c2.854,0,5.897,0.19,9.258,0.571c3.615,0.38,7.356,1.268,11.097,2.663c2.917,1.078,4.312,3.298,4.058,6.532   C244.148,195.41,244.084,196.361,244.021,197.249z M314.154,196.932c-0.254,4.185-1.078,8.243-2.346,11.668   c-1.839,4.692-5.897,7.292-12.492,7.99c-1.775,0.19-3.551,0.254-5.453,0.317c-0.888,0.063-1.839,0.063-2.79,0.127   c-0.761-0.063-1.585-0.127-2.41-0.19c-2.029-0.127-4.185-0.254-6.278-0.634c-8.37-1.459-12.999-6.278-14.077-14.775   c-0.19-1.395-0.317-2.79-0.38-4.185c-0.063-0.887-0.127-1.839-0.19-2.853c-0.317-3.234,1.078-5.454,3.995-6.532   c3.805-1.395,7.546-2.283,11.16-2.663c3.361-0.38,6.341-0.571,9.195-0.571c5.199,0,9.829,0.634,14.204,1.839   C312.949,188.308,314.534,190.337,314.154,196.932z"></path></g></svg>