<?xml version="1.0" encoding="UTF-8"?>
<svg fill="#FFFFFF" width="100pt" height="100pt" version="1.1" viewBox="0 0 100 100" xmlns="http://www.w3.org/2000/svg">
 <path d="m12.82 96.738h74.359c4.875-0.003906 8.8203-3.957 8.8203-8.8281v-47.219c0-0.73828-0.32812-1.4375-0.89062-1.9102l-12.309-10.402v-18.129c0-1.8555-0.73828-3.6367-2.0508-4.9492s-3.0938-2.0508-4.9492-2.0508h-51.109c-3.8672 0-7 3.1328-7 7v17.75l-12.801 10.781c-0.5625 0.47266-0.89062 1.1719-0.89062 1.9102v47.219c0 4.8711 3.9453 8.8242 8.8203 8.8281zm74.352-5h-74.352c-2.1133-0.003906-3.8203-1.7188-3.8203-3.8281v-42.449l28.5 20.16-20.23 15.48c-1.1055 0.82813-1.3281 2.3945-0.5 3.5 0.82812 1.1016 2.3945 1.3281 3.5 0.5l21.512-16.461 7 5c0.86328 0.61328 2.0234 0.61328 2.8906 0l7-5 21.52 16.43c1.1016 0.82813 2.6719 0.60547 3.5-0.5 0.82812-1.1055 0.60156-2.6719-0.5-3.5l-20.191-15.449 28-19.801v42.102c-0.003906 2.1055-1.7109 3.8125-3.8203 3.8164zm2.4297-51.059l-6.8008 4.8086v-10.566zm-64.91-32.418h51.117c0.53125 0 1.0391 0.21094 1.4141 0.58594s0.58594 0.88281 0.58594 1.4141v38.738l-27.559 19.512-27.551-19.512v-38.75c0.007812-1.0977 0.89453-1.9844 1.9922-1.9883zm-7 37.23l-7.0781-5 7.0781-6zm32.309 10.18h0.64062c1.3789 0 2.5-1.1211 2.5-2.5 0-1.3828-1.1211-2.5-2.5-2.5h-0.64062c-4.2266 0-8.2812-1.6797-11.27-4.6719-2.9922-2.9883-4.6719-7.043-4.6719-11.27 0-4.2266 1.6797-8.2812 4.6719-11.273 2.9883-2.9883 7.043-4.668 11.27-4.668s8.2812 1.6797 11.27 4.668c2.9922 2.9922 4.6719 7.0469 4.6719 11.273v4.2695c-0.089844 1.4727-1.3086 2.6211-2.7852 2.6211s-2.6992-1.1484-2.7852-2.6211v-4.2695c0.03125-4.8477-3.293-9.0742-8.0117-10.191-4.7188-1.1133-9.582 1.1797-11.723 5.5312-2.1367 4.3516-0.98828 9.6016 2.7734 12.66 3.7617 3.0586 9.1367 3.1133 12.961 0.12891 1.7344 3.1016 5.3477 4.6328 8.7812 3.7227 3.4336-0.91016 5.8164-4.0312 5.7891-7.582v-4.2695c0-5.5547-2.207-10.879-6.1328-14.809-3.9297-3.9258-9.2539-6.1328-14.809-6.1328s-10.879 2.207-14.809 6.1328c-3.9258 3.9297-6.1328 9.2539-6.1328 14.809 0 5.5547 2.207 10.879 6.1328 14.805 3.9297 3.9297 9.2539 6.1367 14.809 6.1367zm0-15.57c-2.1719 0-4.1289-1.3086-4.9609-3.3164-0.83203-2.0078-0.37109-4.3164 1.1641-5.8516s3.8438-1.9961 5.8516-1.1641c2.0078 0.83203 3.3164 2.7891 3.3164 4.9609 0 2.9648-2.4062 5.3711-5.3711 5.3711z"/>
</svg>
